P3
3 3
255
244 3 36 108 151 74 49 66 155 
247 237 19 55 176 227 152 87 193 
0 0 0 116 94 127 255 255 255

