P3
3 3
255
255 0 37 92 167 82 71 79 174 
235 215 56 93 195 233 167 71 150 
0 0 0 113 101 122 255 255 255
