P3
3 3
255
255 0 43 94 148 78 63 73 176 
255 248 17 89 194 233 173 71 156 
0 0 0 121 105 131 255 255 255
