P3
3 3
255
205 0 26 96 195 58 22 72 177 
255 255 18 78 163 202 144 76 179 
0 0 0 112 96 106 255 255 255
