P3
3 3
255
215 23 48 97 144 56 64 74 172 
226 187 17 118 204 232 183 74 160 
0 0 0 124 110 137 255 255 255 
