P3
3 3
255
254 0 35 107 188 76 45 71 172 
248 242 17 85 191 212 160 74 162
0 0 0 122 105 126 255 255 255
