P3
3 3
255
234 13 36 91 147 85 70 77 173 
211 182 28 103 201 221 175 71 149 
0 0 0 117 102 131 255 255 255
