P3
3 3
255
219 0 27 103 197 134 60 75 165 
227 188 20 83 190 232 169 65 124 
0 0 0 121 109 135 255 255 255
