P3
3 3
255
201 24 39 97 149 69 19 81 180 
255 239 20 66 169 209 165 66 133 
0 0 0 106 89 129 255 255 255

