P3
3 3
255
255 0 37 92 179 57 61 73 168 
220 185 16 64 184 227 159 80 175 
0 0 0 120 116 143 255 255 255
