P3
3 3
255
255 0 0 82 174 94 78 94 238 
220 255 0 98 199 233 193 80 187 
0 0 0 154 156 200 255 255 255
