P3
3 3
255
255 0 0 93 145 65 0 36 201 
255 255 0 115 206 233 192 55 127 
0 0 0 134 107 142 255 255 255
