P3
3 3
255
190 23 53 108 192 98 53 64 163 
255 255 19 106 164 240 210 81 153 
0 0 0 139 119 156 255 255 255
