P3
3 3
255
190 64 78 147 185 113 63 62 175 
202 255 0 159 194 245 185 77 167 
0 0 0 138 120 177 255 255 255 

