P3
3 3
255
255 0 0 68 207 70 30 76 190 
205 180 47 92 219 232 173 58 164 
0 0 0 90 125 127 255 255 255
