P3
3 3
255
255 0 0 95 112 56 53 59 166 
247 193 18 131 137 159 146 38 78 
0 0 0 106 81 84 255 255 255
