P3
3 3
255
255 0 0 104 113 91 58 53 183 
255 227 9 147 157 255 199 67 118 
0 0 0 149 92 136 255 255 255
