P3
3 3
255
167 1 23 89 103 96 40 59 149 
218 150 39 120 120 193 151 71 205 
0 0 0 106 80 114 245 255 255

