P3
3 3
255
239 0 10 102 158 74 55 69 166 
196 175 34 70 155 205 155 52 118 
0 0 0 102 87 112 255 255 255
