P3
3 3
255
255 0 0 112 197 63 65 74 180 
255 255 0 124 213 238 237 143 88 
0 0 0 164 129 146 255 255 255
