P3
3 3
255
182 0 0 90 190 62 58 65 190 
178 183 30 115 218 234 189 56 177 
0 0 0 112 113 130 255 255 255
