P3
3 3
255
255 0 0 115 149 71 61 69 174 
255 255 0 122 162 213 242 85 75 
0 0 0 138 83 175 255 255 255
