P3
3 3
255
136 32 18 58 149 90 3 37 101 
190 232 112 90 174 222 129 51 85 
17 17 15 88 105 120 231 255 254

