P3
6 6
255
2 6 0 72 68 55 0 24 49 0 14 0 11 60 85 12 120 121 
60 32 0 0 2 39 41 0 0 0 0 3 36 94 38 77 74 28 
0 0 20 0 49 20 27 0 0 89 110 38 87 109 39 40 7 13 
0 31 66 159 200 206 113 150 158 65 92 94 26 56 57 0 21 24 
0 0 0 174 220 219 190 223 224 188 222 225 188 223 227 177 224 225 
176 222 224 179 226 226 198 224 230 196 227 230 194 228 234 196 229 232
