P3
6 6
255
93 48 44 159 127 112 66 95 125 37 38 25 90 97 116 191 205 219 
154 81 44 17 61 127 40 53 67 51 30 41 150 239 127 212 193 110 
32 44 85 66 166 97 153 44 31 148 180 73 150 67 74 82 170 214 
217 253 252 195 254 248 139 164 164 115 153 143 72 81 86 50 36 46 
235 254 253 231 254 253 224 255 253 226 254 253 228 254 252 224 253 252 
221 253 252 225 254 253 230 254 253 223 253 252 210 252 252 203 253 250
