P3
3 3
255
247 42 21 95 238 90 0 172 134 
218 200 25 138 242 244 168 81 126 
54 53 25 112 193 143 228 255 255
