P3
3 3
255
233 47 33 114 243 113 0 192 143 
204 192 32 151 251 255 165 89 151 
60 50 63 123 211 179 241 244 240
