P3
6 6
255
93 48 44 159 127 112 66 95 125 88 81 52 163 126 160 76 227 238 
154 81 44 17 61 127 175 89 92 74 22 51 186 217 127 232 138 83 
15 24 73 49 116 84 132 21 23 255 229 145 179 41 67 35 82 141 
255 255 255 173 175 170 173 165 187 107 103 117 52 48 59 10 11 18 
255 255 255 255 255 255 255 255 255 255 255 255 255 255 255 255 255 255 
255 255 255 255 255 255 255 255 255 255 255 255 255 255 255 255 255 255
