P3
3 3
255
118 23 16 33 178 42 0 15 41 
170 248 52 54 218 183 68 7 26 
0 0 0 45 94 62 246 255 255 
