P3
3 3
255
221 72 73 104 238 99 79 98 165 
255 255 153 165 255 255 230 117 164 
110 84 97 159 208 190 255 255 255
