P3
6 6
255
107 48 36 184 122 107 59 76 101 88 81 52 163 126 160 231 209 226 
255 239 255 20 46 88 168 35 31 105 38 49 104 36 46 255 178 118 
0 15 32 27 81 32 169 38 24 188 43 29 140 42 53 181 134 172 
255 255 255 207 186 189 133 135 130 118 122 112 72 78 73 73 76 68 
85 64 64 163 83 88 175 89 92 255 255 255 255 255 255 255 255 255 
255 255 255 255 255 255 255 255 255 255 255 255 255 255 255 255 255 255
