P3
6 6
255
54 36 21 138 124 99 132 123 99 47 67 84 62 66 84 85 105 137 
100 183 183 110 50 24 111 49 24 0 32 71 96 23 20 89 19 19 
43 19 27 42 19 29 113 150 79 157 130 63 22 42 70 30 43 71 
64 111 87 101 34 36 130 139 61 82 23 38 79 22 36 27 89 124 
212 238 239 150 181 184 95 118 119 45 70 70 43 73 70 21 34 40 
4 11 9 3 10 9 255 255 255 255 255 255 255 255 255 253 254 252
