P3
6 6
255
14 15 0 85 91 50 23 39 13 49 57 52 135 105 44 22 49 58 
79 33 21 20 9 10 74 133 45 107 112 63 8 28 41 60 20 13 
148 185 62 79 33 32 28 69 59 240 253 251 89 190 100 58 122 68 
24 38 21 8 26 10 0 7 2 255 255 255 255 255 255 208 252 243 
211 251 243 209 251 241 208 251 241 209 251 240 209 251 241 210 251 241 
211 252 239 212 252 241 213 251 241 213 251 241 215 252 242 215 252 241 
