P3
3 3
255
156 41 31 80 181 92 42 68 114 
212 252 117 123 208 234 161 75 98 
34 13 17 129 132 134 255 254 255 

