P3
3 3
255
202 75 55 97 182 108 62 66 116 
235 252 124 123 201 236 185 96 115 
61 54 53 122 132 133 255 253 255
