P3
6 6
255
78 51 43 132 123 113 56 79 118 52 74 50 82 143 191 76 227 238 
137 86 42 17 61 127 130 45 43 35 11 32 103 190 98 160 172 81 
14 22 70 39 136 79 114 31 21 184 215 120 142 61 83 40 126 187 
230 255 254 180 230 246 132 178 188 88 121 125 58 69 72 28 24 26 
253 255 255 238 255 255 244 255 254 252 255 255 240 255 255 250 255 255 
252 255 255 254 255 255 250 255 255 244 255 255 251 255 255 250 255 255
