P3
6 6
255
85 49 36 154 114 97 29 62 77 5 33 5 6 26 31 15 83 65 
154 80 39 0 13 37 107 23 18 0 0 0 35 69 14 42 37 2 
6 15 59 10 109 52 90 15 6 140 157 59 82 20 26 8 71 104 
160 241 242 255 255 255 111 147 145 0 26 13 15 35 36 3 13 16 
255 255 255 255 255 255 255 255 255 255 255 255 255 255 255 255 255 255 
255 255 255 255 255 255 248 255 255 255 255 255 232 255 255 255 255 255 
