P3
3 3
255
255 79 65 77 186 55 50 91 168 
243 240 32 99 233 208 191 76 152 
107 77 82 104 133 117 254 255 255