P3
6 6
255
99 58 35 71 89 99 34 68 94 28 69 39 84 95 120 97 147 151 
108 57 30 16 31 67 97 26 27 52 28 35 109 179 89 176 145 78 
0 16 39 12 75 38 84 14 7 136 179 69 61 24 20 2 71 85 
192 254 246 94 165 136 26 70 45 12 40 25 0 0 0 17 35 15 
187 236 242 194 241 245 189 240 241 197 241 244 192 241 240 192 239 238 
182 242 238 195 241 241 179 241 238 185 244 236 190 239 236 185 244 237
