P3
6 6
255
29 30 19 102 129 110 14 77 119 10 75 37 51 120 165 47 193 216 
148 110 48 0 48 115 111 41 38 14 7 26 73 172 85 158 168 98 
3 35 84 19 110 73 82 33 31 146 198 117 107 60 91 9 119 189 
206 254 254 164 248 252 69 133 149 31 79 96 0 26 43 230 255 255 
230 255 255 231 255 255 252 255 255 240 255 255 241 255 255 230 255 255 
205 255 255 204 255 255 231 255 255 222 255 255 202 255 255 224 255 255
