P3
3 3
255
179 41 28 90 160 89 33 53 104 
238 232 122 113 175 217 156 52 77 
5 1 0 75 118 108 255 255 255
