P3
6 6
255
60 36 24 125 124 104 126 126 103 37 72 101 39 65 40 39 65 40 
81 112 143 91 178 184 122 75 31 125 77 35 17 46 96 120 32 28 
123 32 28 44 19 33 47 17 31 107 189 88 113 186 90 178 159 89 
0 14 42 22 108 50 108 28 23 112 28 21 159 222 91 110 41 51 
46 120 153 226 254 253 147 237 219 85 165 139 33 87 65 0 35 27 
0 0 0 255 255 255 255 255 255 255 255 255 255 255 255 255 255 255
