P3
3 3
255
101 7 12 39 144 44 0 29 72 
193 214 85 81 171 186 106 19 55 
0 0 0 56 78 74 255 255 255 
