P3
3 3
255
163 31 25 73 131 75 37 50 86 
204 198 81 96 156 182 141 45 66 
13 5 7 107 96 97 248 250 248

