P3
3 3
255
255 0 0 100 171 68 47 77 184 
202 160 0 124 204 239 236 63 151 
0 0 0 126 114 138 255 255 255
