P3
3 3
255
197 20 42 93 160 68 61 68 173 
234 183 19 70 195 230 191 61 152 
0 0 0 120 107 143 255 255 255
