P3
3 3
255
229 0 13 98 161 67 68 75 173 
237 181 13 84 197 224 197 71 150 
0 0 0 126 107 153 255 255 255
