P3
3 3
255
255 0 6 104 196 69 30 82 171 
227 193 33 86 205 234 191 70 170 
0 0 0 130 127 134 255 255 255
