P3
3 3
255
192 28 54 91 154 68 64 76 173 
213 179 38 46 173 198 173 66 148 
0 0 0 87 98 95 255 255 255
