P3
3 3
255
205 14 39 90 138 67 66 80 168 
204 157 40 67 173 197 174 64 147 
0 0 0 109 101 108 255 255 255 
