P3
3 3
255
255 0 0 100 140 65 67 69 177 
231 186 0 86 171 204 249 46 105 
0 0 0 128 104 133 255 255 255
