P3
3 3
255
209 0 0 91 168 69 67 77 176 
231 182 21 37 187 221 160 63 145 
0 0 0 72 100 101 255 255 255
