P3
3 3
255
255 0 0 102 186 69 35 65 180 
234 187 20 59 196 228 156 63 145 
0 0 0 93 105 101 255 255 255
