P3
3 3
255
178 45 63 91 173 69 64 73 177 
205 178 41 22 177 211 139 61 144 
0 0 0 75 98 98 255 255 255
