P3
3 3
255
255 0 0 73 109 70 35 39 184 
243 186 25 23 120 250 138 23 105 
0 0 0 148 97 173 255 255 255
