P3
3 3
255
255 0 0 82 160 69 41 71 171 
183 188 46 40 189 216 163 66 146 
0 0 0 103 97 135 255 255 255 