P3
3 3
255
173 24 2 67 199 72 36 74 175 
231 200 27 57 198 224 171 64 177 
0 0 0 100 120 147 255 255 255
