P3
3 3
255
173 44 51 106 166 67 13 58 185 
255 240 15 140 201 239 212 77 173 
0 0 0 143 116 141 255 255 255
