P3
3 3
255
255 0 3 109 201 68 0 68 189 
255 192 0 179 201 248 193 77 209 
0 0 0 148 131 155 255 255 255
