P3
3 3
255
165 70 77 82 198 71 42 75 175 
179 193 47 12 192 214 142 58 177 
0 0 0 84 99 133 255 255 255
