P3
3 3
255
221 26 36 76 206 92 0 81 187 
253 255 34 100 202 234 189 75 184 
0 0 0 89 129 154 255 255 255
