P3
3 3
255
172 68 72 81 204 100 0 76 199 
210 199 45 91 201 233 192 68 188 
0 0 0 127 130 149 255 255 255
