P3
3 3
255
255 0 0 104 174 68 30 64 176 
255 244 16 91 193 243 222 77 158 
0 0 0 122 92 115 255 255 255
