P3
3 3
255
217 13 28 96 176 68 21 61 181 
255 240 15 58 192 225 158 63 131 
0 0 0 88 89 98 255 255 255 
