P3
3 3
255
240 51 133 120 175 88 46 85 188 
238 235 50 61 153 221 136 44 193 
0 0 0 98 93 136 255 255 255 
