P3
3 3
255
241 23 41 64 146 70 56 79 176 
228 209 47 55 187 240 140 47 190 
0 0 0 122 112 163 255 255 255
