P3
3 3
255
196 53 71 75 118 70 34 62 147 
206 189 61 66 168 235 127 46 186 
0 0 0 109 93 150 255 255 255

