P3
3 3
255
255 22 41 90 140 77 44 91 185 
191 127 0 73 169 239 148 54 179 
0 0 0 156 90 161 255 255 255

