P3
3 3
255
255 0 0 108 185 72 20 58 165 
255 243 0 121 205 238 193 67 176 
0 0 0 133 112 137 255 255 255
