P3
3 3
255
255 0 0 110 186 71 8 59 169 
252 241 4 119 207 239 201 75 184 
0 0 0 133 116 144 255 255 255
