P3
3 3
255
255 0 0 108 188 69 30 60 164 
255 255 0 125 208 240 204 70 180 
0 0 0 135 120 138 255 255 255
