P3
3 3
255
255 0 0 111 186 71 50 111 157 
255 255 0 86 208 239 180 76 162 
0 0 0 125 120 129 255 255 255
