P3
3 3
255
255 0 0 115 188 68 8 54 169 
255 255 0 101 206 237 198 68 174
0 0 0 126 112 129 255 255 255
 