P3
3 3
255
255 0 0 83 194 65 17 54 165 
255 240 0 101 207 238 207 64 177 
0 0 0 125 116 130 255 255 255
