P3
3 3
255
255 0 0 116 188 68 18 57 165 
247 227 7 74 207 237 178 68 166 
0 0 0 123 110 132 255 255 255
