P3
3 3
255
255 0 0 110 188 70 6 77 182 
241 221 14 67 208 237 196 72 177 
0 0 0 131 113 136 255 255 255
