P3
3 3
255
255 0 0 103 188 66 23 63 164 
255 255 0 85 207 238 209 75 182 
0 0 0 136 119 134 255 255 255
