P3
3 3
255
255 0 0 113 187 70 10 71 180 
255 243 0 97 207 239 214 71 181 
0 0 0 145 117 146 255 255 255
