P3
3 3
255
255 49 0 109 198 70 39 77 176 
255 255 0 115 213 233 184 72 157 
0 0 0 87 128 178 255 255 255
