P3
3 3
255
255 18 0 93 200 57 16 70 186 
255 255 0 112 213 230 182 64 181 
0 0 0 107 116 115 255 255 255
