P3
3 3
255
255 45 0 108 198 67 18 85 172 
255 255 0 104 214 230 194 73 158 
0 0 0 130 118 134 255 255 255
