P3
3 3
255
255 59 0 119 196 74 24 68 176 
255 255 0 117 211 236 196 77 163 
0 0 0 135 119 156 255 255 255
