P3
3 3
255
255 12 0 126 196 79 0 64 183 
255 255 0 122 213 236 197 78 171 
0 0 0 140 120 139 255 255 255
