P3
3 3
255
255 0 0 103 199 70 24 71 180 
255 255 0 116 212 234 193 77 172 
0 0 0 109 149 172 255 255 255
