P3
3 3
255
255 24 0 97 200 71 27 68 177 
255 251 12 114 214 231 177 67 166 
0 0 0 121 118 148 255 255 255
