P3
3 3
255
255 10 0 94 200 71 14 82 173 
255 255 0 113 215 231 177 67 166 
0 0 0 105 120 119 255 255 255
