P3
3 3
255
255 43 0 94 197 78 14 64 179 
229 193 28 113 215 230 182 72 157 
0 0 0 119 119 127 255 255 255
