P3
3 3
255
255 44 0 104 196 64 30 83 170 
255 255 0 116 210 235 189 66 185 
0 0 0 133 112 145 255 255 255
