P3
3 3
255
232 21 25 96 196 73 48 102 191 
240 234 31 66 191 245 133 22 157 
0 0 0 124 151 171 255 255 255
