P3
3 3
255
225 42 24 89 178 117 22 129 176 
237 230 112 68 191 244 174 72 135 
0 0 0 107 174 180 255 255 255 
