P3
3 3
255
255 11 39 125 182 116 36 140 195 
231 226 17 103 200 244 152 41 181 
0 0 0 141 179 193 255 255 255 
