P3
3 3
255
234 19 21 155 189 146 42 138 195 
189 106 0 140 211 244 146 41 148 
0 0 0 143 161 181 255 255 255

