P3
3 3
255
226 60 86 123 182 118 38 136 196 
226 220 16 138 210 242 147 32 182 
0 0 0 129 162 184 255 255 255
