P3
3 3
255
254 30 58 134 186 132 40 133 199 
211 206 0 92 198 244 158 35 172 
0 0 0 133 156 177 255 255 255

