P3
3 3
255
252 0 0 126 161 73 48 70 176 
189 162 0 79 166 241 177 56 182 
0 0 0 145 93 159 225 225 255
