P3
3 3
255
255 3 51 75 153 55 72 90 177 
186 152 0 51 185 237 128 58 166 
0 0 0 108 109 154 255 255 255
 
