P3
3 3
255
255 0 0 83 189 80 0 77 198 
246 241 64 57 196 225 203 96 181 
0 0 0 158 165 166 255 255 255 
