P3
3 3
255
244 34 49 110 201 94 0 56 173 
222 214 8 141 208 242 177 72 169 
0 0 0 149 149 191 255 255 255


