P3
3 3
255
243 40 70 113 201 100 0 60 173 
227 219 29 132 208 241 175 74 169 
0 0 0 143 148 188 255 255 255

