P3
3 3
255
224 0 0 114 199 70 45 57 165 
208 196 52 130 208 242 195 62 165 
0 0 0 121 116 157 255 255 255
