P3
3 3
255
210 16 14 113 185 77 39 65 167 
229 209 58 125 207 239 179 66 159 
0 0 0 124 116 151 255 255 255 
