P3
3 3
255
173 59 72 120 201 86 37 57 167 
236 214 73 157 210 245 188 67 165 
0 0 0 171 158 178 255 255 255






