P3
3 3
255
177 68 87 112 195 81 45 67 166 
244 233 43 126 208 242 187 81 180 
0 0 0 136 122 158 255 255 255 

