P3
3 3
255
227 34 61 107 197 85 39 60 168 
209 200 0 144 209 243 195 82 181 
0 0 0 133 136 182 255 255 255
