P3
3 3
255
255 10 32 119 200 94 0 61 172 
210 201 0 141 208 242 180 71 169 
0 0 0 144 144 183 255 255 255
