P3
3 3
255
240 47 68 112 201 98 0 56 174 
245 240 69 131 208 240 182 79 175 
0 0 0 135 128 171 255 255 255

