P3
3 3
255
214 0 30 92 152 65 59 66 176 
248 206 17 74 178 211 163 50 182 
0 0 0 104 96 103 255 255 255
