P3
3 3
255
203 0 30 87 181 68 75 67 202 
237 199 26 50 189 217 160 54 151 
0 0 0 114 111 127 255 255 255
