P3
3 3
255
200 0 21 60 134 60 122 93 191 
255 223 5 73 181 212 192 59 152 
0 0 0 81 94 101 255 255 255
