P3
3 3
255
239 0 9 78 187 59 92 71 200 
218 189 45 49 195 225 156 46 153
0 0 0 75 98 103 255 255 255
