P3
3 3
255
255 0 14 66 195 69 47 91 208 
242 219 21 79 204 230 164 58 188 
0 0 0 117 125 136 255 255 255
