P3
3 3
255
223 4 48 86 189 69 63 73 206 
218 190 44 39 190 218 154 51 158 
0 0 0 83 101 119 255 255 255
