P3
3 3
255
240 0 35 67 192 62 93 88 198 
171 185 61 28 165 204 135 54 144 
0 0 0 73 108 111 255 255 255
