P3
3 3
255
206 24 54 88 193 67 54 77 214 
233 201 28 49 198 227 170 59 172 
0 0 0 115 118 155 255 255 255
