P3
3 3
255
155 24 42 66 155 64 71 74 166 
151 174 59 7 139 195 115 42 115 
0 0 0 80 97 104 255 255 255
