P3
3 3
255
204 0 28 69 143 62 77 72 181 
162 166 60 20 131 157 115 30 108 
0 0 0 69 90 92 255 255 255
