P3
3 3
255
172 35 69 97 160 93 55 72 160 
218 176 40 95 206 220 155 54 163 
0 0 0 143 100 169 255 255 255
 
