P3
3 3
255
255 0 0 127 202 75 7 128 185 
255 200 0 132 222 231 165 80 183
0 0 0 113 125 122 255 255 255
