P3
3 3
255
201 95 93 138 180 102 69 72 179 
249 235 12 101 191 211 158 76 163 
0 0 0 141 119 159 255 255 255
