P3
3 3
255
167 39 146 138 201 93 62 78 173 
215 174 44 125 220 230 165 62 175 
0 0 0 98 109 170 255 255 255
