P3
3 3
255
255 0 0 149 207 92 48 103 181 
255 237 0 123 220 230 173 156 197 
0 0 0 147 134 153 255 255 255
