P3
3 3
255
255 0 0 144 201 119 16 123 187 
255 239 40 108 215 229 174 75 169 
0 0 0 72 74 105 255 255 255 

