P3
3 3
255
255 0 0 98 193 84 41 112 173 
235 200 24 131 222 231 178 68 162 
0 0 0 140 138 173 255 255 255
