P3
3 3
255
214 0 0 125 197 81 75 74 183 
244 220 17 171 173 196 69 0 0 
0 0 0 158 122 160 255 255 255
