P3
3 3
255
255 0 0 110 197 76 45 106 166 
250 214 5 135 224 233 165 80 183
0 0 0 165 155 167 255 255 255
 