P3
3 3
255
5 0 0 95 109 54 45 63 154 
255 164 0 154 227 234 246 0 0 
0 0 0 177 113 172 254 255 253
