P3
3 3
255
255 0 0 108 195 57 0 136 186 
220 175 28 96 210 226 180 73 161 
0 0 0 113 125 122 255 255 255
