P3
3 3
255
136 25 49 86 156 94 39 50 139 
196 169 48 111 139 169 166 68 148 
0 0 0 97 87 169 255 255 255
 