P3
3 3
255
255 0 0 91 191 83 52 67 180 
208 174 46 101 211 226 154 101 193 
0 0 0 101 104 116 255 255 255

