P3
3 3
255
240 0 0 100 160 62 55 70 162 
201 159 6 47 186 211 183 58 159
0 0 0 96 98 105 255 255 255
