P3
3 3
255
199 0 1 75 178 59 73 77 197 
226 179 24 21 200 235 165 74 152 
0 0 0 96 105 119 255 255 255
