P3
3 3
255
189 45 50 86 188 67 64 83 197 
222 183 31 33 201 234 165 94 193 
0 0 0 113 115 132 255 255 255
