P3
3 3
255
192 0 1 57 189 55 74 98 192 
194 173 40 0 193 233 142 70 139 
0 0 0 42 93 112 255 255 255
