P3
3 3
255
201 20 11 72 112 41 53 70 156 
208 127 39 80 125 157 90 39 76 
0 0 0 83 84 86 242 255 255
