P3
3 3
255
255 6 1 93 184 67 58 78 198 
254 218 6 55 204 235 176 81 167 
0 0 0 118 118 130 255 255 255

