P3
3 3
255
255 4 1 96 183 81 69 77 188 
232 188 28 85 207 237 178 79 161 
0 0 0 124 120 134 255 255 255
