P3
3 3
255
255 0 1 91 174 70 66 75 189 
255 224 0 62 202 234 182 81 163 
0 0 0 123 118 130 255 255 255
