P3
3 3
255
220 21 13 85 188 63 69 79 192 
240 200 21 53 205 236 167 77 160 
0 0 0 111 116 130 255 255 255
