P3
3 3
255
255 0 1 118 195 71 57 85 194 
255 243 0 40 203 236 173 80 167 
0 0 0 103 114 123 255 255 255
