P3
3 3
255
221 27 27 100 183 71 51 68 199 
237 193 23 44 203 235 182 83 171 
0 0 0 122 119 137 255 255 255
