P3
3 3
255
219 0 0 81 209 104 26 90 179 
179 188 0 86 200 235 196 91 187 
0 0 0 88 144 155 255 255 255
