P3
3 3
255
255 8 25 107 178 109 4 158 187 
243 237 35 91 198 244 153 53 189 
0 0 0 126 159 185 255 255 255
