P3
3 3
255
239 34 55 109 206 89 0 90 185 
240 224 9 95 203 237 191 83 201 
0 0 0 134 125 134 255 255 255
