P3
3 3
255
254 38 75 102 189 81 56 94 186 
235 224 48 58 188 243 127 44 189 
0 0 0 126 134 163 255 255 255 
