P3
3 3
255
255 29 52 93 207 96 0 74 188 
217 219 0 98 204 237 189 82 163 
0 0 0 131 123 137 255 255 255
