P3
3 3
255
223 32 57 103 153 66 15 65 188 
255 239 21 61 177 224 160 74 164 
0 0 0 96 90 167 255 255 255 

