P3
3 3
255
255 0 44 96 142 64 29 60 177 
246 240 17 69 181 226 179 74 152 
0 0 0 122 100 133 255 255 255
