P3
3 3
255
255 0 35 94 152 62 1 83 203 
255 246 19 59 178 226 166 78 173 
0 0 0 114 100 146 255 255 255 

