P3
3 3
255
248 18 40 101 161 100 71 78 173 
255 243 22 89 194 233 147 90 145 
0 0 0 116 97 145 255 255 255
 
