P3
3 3
255
255 15 43 120 201 127 16 79 182 
255 248 24 110 201 238 175 85 177 
0 0 0 148 147 183 255 255 255



