P3
3 3
255
255 98 43 110 188 101 19 89 182 
255 255 17 49 174 227 182 71 151 
0 0 0 111 96 130 255 255 255
