P3
3 3
255
255 0 34 98 169 60 9 69 195 
242 238 18 66 184 226 171 72 149 
0 0 0 111 99 158 255 255 255

