P3
3 3
255
255 0 42 97 152 74 65 76 172 
244 240 70 43 172 225 157 79 174 
0 0 0 112 101 137 255 255 255 


