P3
3 3
255
160 51 76 103 166 77 67 75 173 
255 231 26 113 202 238 152 68 157 
0 0 0 109 106 154 255 255 255
