P3
3 3
255
255 0 42 112 179 80 19 58 185 
255 253 19 82 186 232 159 90 196 
0 0 0 111 94 135 255 255 255
