P3
3 3
255
251 0 0 99 198 88 44 95 177 
230 212 44 108 207 233 160 75 192 
0 0 0 127 137 160 255 255 255
