P3
3 3
255
255 0 0 89 203 82 43 84 182 
234 219 0 59 178 221 174 74 184 
0 0 0 130 153 201 255 255 255
