P3
3 3
255
255 0 0 137 180 96 44 82 179 
240 221 12 91 198 230 168 57 160 
0 0 0 106 119 163 255 255 255
