P3
3 3
255
217 21 39 92 202 79 38 92 183 
199 182 0 78 190 226 166 76 191 
0 0 0 126 132 147 255 255 255
