P3
3 3
255
252 0 0 85 210 75 43 86 170 
227 210 0 36 167 214 146 48 155 
0 0 0 91 123 124 255 255 255
