P3
3 3
255
221 0 0 97 200 80 40 85 175 
224 210 0 71 186 224 185 83 186 
0 0 0 116 126 130 255 255 255
