P3
3 3
255
237 0 0 95 202 75 50 91 178 
185 169 0 79 190 226 180 79 169 
0 0 0 123 126 133 255 255 255
