P3
3 3
255
255 0 0 84 215 73 49 86 173 
219 186 35 56 176 220 145 59 208 
0 0 0 112 124 128 255 255 255
