P3
3 3
255
250 5 8 98 199 84 41 102 195 
233 199 18 80 191 226 185 112 198 
0 0 0 122 127 133 255 255 255
