P3
3 3
255
255 0 4 98 199 81 55 101 194 
232 210 39 95 200 230 179 104 203 
0 0 0 129 130 155 255 255 255
